<svg width="538" height="475" viewBox="0 0 538 475" fill="none" xmlns="http://www.w3.org/2000/svg">
<path d="M751.635 -239.87C751.635 -239.87 775.157 19.137 619.456 200.897C463.755 382.656 191.476 417.654 191.476 417.654C191.476 417.654 167.954 158.647 323.655 -23.1123C477.461 -202.961 751.635 -239.87 751.635 -239.87Z" fill="url(#paint0_linear_1_70)"/>
<path d="M879.099 -132.075C879.099 -132.075 916.76 125.256 771.239 315.264C625.719 505.272 355.764 555.118 355.764 555.118C355.764 555.118 318.102 297.787 463.623 107.779C607.357 -80.2168 879.099 -132.075 879.099 -132.075Z" fill="url(#paint1_linear_1_70)"/>
<path d="M826.397 -213.902C826.397 -213.902 759.014 37.2896 550.117 154.086C341.22 270.883 73.6098 209.685 73.6098 209.685C73.6098 209.685 140.993 -41.5068 349.89 -158.303C556.349 -273.961 826.397 -213.902 826.397 -213.902Z" fill="url(#paint2_linear_1_70)"/>
<defs>
<linearGradient id="paint0_linear_1_70" x1="816.669" y1="-143.23" x2="126.557" y2="321.185" gradientUnits="userSpaceOnUse">
<stop stop-color="#4E7200"/>
<stop offset="1" stop-color="#B4E549" stop-opacity="0.1"/>
</linearGradient>
<linearGradient id="paint1_linear_1_70" x1="949.325" y1="-39.1394" x2="285.662" y2="462.347" gradientUnits="userSpaceOnUse">
<stop stop-color="#4E7200"/>
<stop offset="1" stop-color="#B4E549" stop-opacity="0.1"/>
</linearGradient>
<linearGradient id="paint2_linear_1_70" x1="854.051" y1="-100.748" x2="46.0048" y2="96.73" gradientUnits="userSpaceOnUse">
<stop stop-color="#4E7200"/>
<stop offset="1" stop-color="#B4E549" stop-opacity="0.1"/>
</linearGradient>
</defs>
</svg>
